@startuml

' Set background color
skinparam BackgroundColor transparent

' Define colors for each interface
!define IEvoColor #FFFFFF
!define IDColor #FFFFFF
!define ITimeColor #FFFFFF
!define IEntityColor #09b620

!define IAiColor #ffa600

interface IEvo <<(I, IEvoColor)>> {
    +{static} evo_version() -> TypeEvoVersion
    +get_evo_version() -> TypeEvoVersion
}

interface ID<TypeID> <<(I, IDColor)>> {
    +get_id() -> TypeID
    +set_id(id: TypeID)
}

interface ITime <<(I, ITimeColor)>> {
    +get_time() -> TypeTime
    +set_time(time: TypeTime)
}
interface IEntity<TypeID> <<(I, IEntityColor)>> IEntityColor{
    +to_bytes() -> Vec<u8>
    +from_bytes(data: BYTES) -> Self
    +to_string() -> String
}

interface IAiEntity <<(I, IAiColor)>> IAiColor{
    +{static} get_ai_id() -> String
    +{static} get_ai_schema() -> String
    +to_ai() -> String
    +{static} from_ai(str_ai: String) -> Self
}

struct EApiEvent IEntityColor{
    - id: TypeID
    - time: u64
    - data: Vec<u8>
    - enum_action_state: u8
    - id_action: TypeID
    - id_agent: TypeID
    - id_from: TypeID
    - id_relay: TypeID
    - id_to: TypeID
    - is_ai: u8
    - is_output: u8
    - length: u64
    - progress: u8
    - seek: u64

 + get_id(&self) -> TypeID
    + set_id(&mut self, _id: TypeID)
 + get_time(&self) -> u64
    + set_time(&mut self, _time: u64)
 + get_data(&self) -> Vec<u8>
    + set_data(&mut self, _data: Vec<u8>)
 + get_enum_action_state(&self) -> u8
    + set_enum_action_state(&mut self, _enum_action_state: u8)
 + get_id_action(&self) -> TypeID
    + set_id_action(&mut self, _id_action: TypeID)
 + get_id_agent(&self) -> TypeID
    + set_id_agent(&mut self, _id_agent: TypeID)
 + get_id_from(&self) -> TypeID
    + set_id_from(&mut self, _id_from: TypeID)
 + get_id_relay(&self) -> TypeID
    + set_id_relay(&mut self, _id_relay: TypeID)
 + get_id_to(&self) -> TypeID
    + set_id_to(&mut self, _id_to: TypeID)
 + get_is_ai(&self) -> u8
    + set_is_ai(&mut self, _is_ai: u8)
 + get_is_output(&self) -> u8
    + set_is_output(&mut self, _is_output: u8)
 + get_length(&self) -> u64
    + set_length(&mut self, _length: u64)
 + get_progress(&self) -> u8
    + set_progress(&mut self, _progress: u8)
 + get_seek(&self) -> u64
    + set_seek(&mut self, _seek: u64)

}

' Define the relationships between interfaces

IEvo <|-- IEntity IEntityColor
ID <|-- IEntity IEntityColor
ITime <|-- IEntity IEntityColor

IEntity <|-- EApiEvent  IEntityColor
IAiEntity <|-- EApiEvent  IAiColor
IEvo -down-> ID #transparent
'ID -left-> ITime #transparent

@enduml