@startuml

' Set background color
skinparam BackgroundColor transparent

' Define colors for each interface
!define IEvoColor #FFFFFF
!define IDColor #FFFFFF
!define ITimeColor #FFFFFF
!define IEntityColor #09b620

!define IAiColor #ffa600

interface IEvo <<(I, IEvoColor)>> {
    +{static} evo_version() -> TypeEvoVersion
    +get_evo_version() -> TypeEvoVersion
}

interface ID<TypeID> <<(I, IDColor)>> {
    +get_id() -> TypeID
    +set_id(id: TypeID)
}

interface ITime <<(I, ITimeColor)>> {
    +get_time() -> TypeTime
    +set_time(time: TypeTime)
}
interface IEntity<TypeID> <<(I, IEntityColor)>> IEntityColor{
    +to_bytes() -> Vec<u8>
    +from_bytes(data: BYTES) -> Self
    +to_string() -> String
}

interface IAiEntity <<(I, IAiColor)>> IAiColor{
    +{static} get_ai_id() -> String
    +{static} get_ai_schema() -> String
    +to_ai() -> String
    +{static} from_ai(str_ai: String) -> Self
}

struct EPeerCertificate IEntityColor{
    - id: TypeID
    - time: u64
    - cid: TypeID
    - data_e_peer_public: Vec<u8>
    - enum_peer_crypto: u8
    - id_signer: TypeID
    - ipns: String
    - sign: Vec<u8>
    - url: String

 + get_id(&self) -> TypeID
    + set_id(&mut self, _id: TypeID)
 + get_time(&self) -> u64
    + set_time(&mut self, _time: u64)
 + get_cid(&self) -> TypeID
    + set_cid(&mut self, _cid: TypeID)
 + get_data_e_peer_public(&self) -> Vec<u8>
    + set_data_e_peer_public(&mut self, _data_e_peer_public: Vec<u8>)
 + get_enum_peer_crypto(&self) -> u8
    + set_enum_peer_crypto(&mut self, _enum_peer_crypto: u8)
 + get_id_signer(&self) -> TypeID
    + set_id_signer(&mut self, _id_signer: TypeID)
 + get_ipns(&self) -> String
    + set_ipns(&mut self, _ipns: String)
 + get_sign(&self) -> Vec<u8>
    + set_sign(&mut self, _sign: Vec<u8>)
 + get_url(&self) -> String
    + set_url(&mut self, _url: String)

}

' Define the relationships between interfaces

IEvo <|-- IEntity IEntityColor
ID <|-- IEntity IEntityColor
ITime <|-- IEntity IEntityColor

IEntity <|-- EPeerCertificate  IEntityColor
IAiEntity <|-- EPeerCertificate  IAiColor
IEvo -down-> ID #transparent
'ID -left-> ITime #transparent

@enduml