@startuml

' Set background color
skinparam BackgroundColor transparent

' Define colors for each interface
!define IEvoColor #FFFFFF
!define IDColor #FFFFFF
!define ITimeColor #FFFFFF
!define IEntityColor #09b620

!define IAiColor #ffa600

interface IEvo <<(I, IEvoColor)>> {
    +{static} evo_version() -> TypeEvoVersion
    +get_evo_version() -> TypeEvoVersion
}

interface ID<TypeID> <<(I, IDColor)>> {
    +get_id() -> TypeID
    +set_id(id: TypeID)
}

interface ITime <<(I, ITimeColor)>> {
    +get_time() -> TypeTime
    +set_time(time: TypeTime)
}
interface IEntity<TypeID> <<(I, IEntityColor)>> IEntityColor{
    +to_bytes() -> Vec<u8>
    +from_bytes(data: BYTES) -> Self
    +to_string() -> String
}

interface IAiEntity <<(I, IAiColor)>> IAiColor{
    +{static} get_ai_id() -> String
    +{static} get_ai_schema() -> String
    +to_ai() -> String
    +{static} from_ai(str_ai: String) -> Self
}

struct ETest2 IEntityColor{
    - id: TypeID
    - time: u64
    - attribute_entity1: Option<ETest1>
    - attribute_string: String

 + get_id(&self) -> TypeID
    + set_id(&mut self, _id: TypeID)
 + get_time(&self) -> u64
    + set_time(&mut self, _time: u64)
 + get_attribute_entity1(&self) -> Option<ETest1>
    + set_attribute_entity1(&mut self, _attribute_entity1: Option<ETest1>)
 + get_attribute_string(&self) -> String
    + set_attribute_string(&mut self, _attribute_string: String)

}

' Define the relationships between interfaces

IEvo <|-- IEntity IEntityColor
ID <|-- IEntity IEntityColor
ITime <|-- IEntity IEntityColor

IEntity <|-- ETest2  IEntityColor
IAiEntity <|-- ETest2  IAiColor
IEvo -down-> ID #transparent
'ID -left-> ITime #transparent

@enduml