@startuml

' Set background color
skinparam BackgroundColor transparent

' Define colors for each interface
!define IEvoColor #FFFFFF
!define IDColor #FFFFFF
!define ITimeColor #FFFFFF
!define IEntityColor #09b620

!define IAiColor #ffa600

interface IEvo <<(I, IEvoColor)>> {
    +{static} evo_version() -> TypeEvoVersion
    +get_evo_version() -> TypeEvoVersion
}

interface ID<TypeID> <<(I, IDColor)>> {
    +get_id() -> TypeID
    +set_id(id: TypeID)
}

interface ITime <<(I, ITimeColor)>> {
    +get_time() -> TypeTime
    +set_time(time: TypeTime)
}
interface IEntity<TypeID> <<(I, IEntityColor)>> IEntityColor{
    +to_bytes() -> Vec<u8>
    +from_bytes(data: BYTES) -> Self
    +to_string() -> String
}

interface IAiEntity <<(I, IAiColor)>> IAiColor{
    +{static} get_ai_id() -> String
    +{static} get_ai_schema() -> String
    +to_ai() -> String
    +{static} from_ai(str_ai: String) -> Self
}

struct ETest0 IEntityColor{}
IEntity <|-- ETest0  IEntityColor
IAiEntity <|-- ETest0  IAiColor

struct ETest1 IEntityColor{}
IEntity <|-- ETest1  IEntityColor
IAiEntity <|-- ETest1  IAiColor

struct ETest2 IEntityColor{}
IEntity <|-- ETest2  IEntityColor
IAiEntity <|-- ETest2  IAiColor

struct ETest3 IEntityColor{}
IEntity <|-- ETest3  IEntityColor
IAiEntity <|-- ETest3  IAiColor


' Define the relationships between interfaces

IEvo <|-- IEntity IEntityColor
ID <|-- IEntity IEntityColor
ITime <|-- IEntity IEntityColor

IEvo -down-> ID #transparent
'ID -left-> ITime #transparent

@enduml